<svg width="100" height="100" viewBox="0 0 100 100" fill="none" xmlns="http://www.w3.org/2000/svg">
<path fill-rule="evenodd" clip-rule="evenodd" d="M25.8367 91.397L22.4467 95.499L19.0567 91.397L21.8166 73.2279H23.0768L25.8367 91.397ZM26.2395 73.2422L29.0385 91.6201C29.1045 92.059 28.9727 92.5062 28.6901 92.85L23.8973 98.6488H41.7315C42.7303 98.6488 43.5448 97.8344 43.5448 96.8357V91.2119C43.5448 81.5482 35.8194 73.6023 26.2395 73.2422ZM15.8643 91.6201L18.6541 73.2424C9.07815 73.6066 1.35706 81.5506 1.35706 91.2117V96.8355C1.35706 97.8342 2.1717 98.6486 3.17034 98.6486H20.9959L16.2031 92.8498C15.9205 92.506 15.7985 92.059 15.8643 91.6201ZM22.4508 71.3549C27.6737 71.3549 31.9334 67.0951 31.9334 61.8722C31.9334 56.6494 27.6737 52.3896 22.4508 52.3896C17.228 52.3896 12.9682 56.6494 12.9682 61.8722C12.9682 67.0951 17.228 71.3549 22.4508 71.3549ZM43.5998 51.7527L48.2174 56.3703C48.6321 56.7849 49.2666 56.8469 49.7537 56.5203L52.7369 54.5195L58.8662 57.0578L59.5612 60.5824C59.6746 61.1578 60.1672 61.5627 60.7537 61.5627H67.2836C67.8701 61.5627 68.3627 61.1578 68.476 60.5826L69.1711 57.0578L72.768 55.5681L66.9629 49.7631C62.443 50.722 57.5438 49.4474 54.033 45.9367C48.5182 40.4218 48.5182 31.4804 54.033 25.9656C59.5479 20.4508 68.4893 20.4508 74.0041 25.9656C77.5149 29.4763 78.7897 34.3756 77.8305 38.8957L83.6356 44.7006L85.1252 41.1037L88.6498 40.4088C89.2252 40.2953 89.6301 39.8029 89.6301 39.2164V32.6865C89.6301 32.1 89.2252 31.6076 88.6496 31.4941L85.1248 30.7992L82.5865 24.6701L84.5871 21.6867C84.9137 21.1996 84.8518 20.565 84.4371 20.1504L79.8196 15.5328C79.4049 15.1181 78.7701 15.0562 78.2832 15.3828L75.3 17.3834L69.1707 14.8451L68.4758 11.3205C68.3625 10.7451 67.8699 10.3402 67.2834 10.3402H60.7535C60.167 10.3402 59.6742 10.7451 59.561 11.3203L58.8662 14.8451L52.7369 17.3834L49.7537 15.3826C49.2666 15.056 48.6321 15.1179 48.2174 15.5328L43.5998 20.1504C43.1852 20.565 43.1233 21.1996 43.45 21.6867L45.4506 24.6699L42.9123 30.7992L39.3875 31.4941C38.8123 31.6076 38.4074 32.1002 38.4074 32.6867V39.2166C38.4074 39.8031 38.8123 40.2957 39.3877 40.4092L42.9123 41.1041L45.4508 47.2334L43.45 50.2166C43.1235 50.7035 43.1854 51.3381 43.5998 51.7527ZM84.51 50.1375L72.6772 38.3049C73.4897 35.3041 72.7496 31.9953 70.3621 29.608C67.9746 27.2205 64.4865 26.4406 61.4254 27.3619L67.1848 33.1213L65.9176 37.8506L61.1883 39.1177L55.4289 33.3584C54.5076 36.4197 55.2561 39.8763 57.675 42.2951C60.0309 44.6511 63.3711 45.4226 66.3719 44.6101L78.2045 56.4427C77.392 59.4435 78.1637 62.7838 80.5196 65.1396C82.9385 67.5588 86.3949 68.307 89.4565 67.3857L83.6971 61.6263L84.9645 56.8972L89.6936 55.6301L95.453 61.3894C96.3742 58.3281 95.5944 54.84 93.2069 52.4525C90.8194 50.065 87.5108 49.3248 84.51 50.1375ZM97.7992 28.3611C96.3678 21.9736 93.1473 16.14 88.5049 11.49C81.9602 4.9529 73.2686 1.35095 64.0213 1.35095C54.774 1.35095 46.0824 4.9529 39.5471 11.49C26.0528 24.9881 26.0528 46.949 39.5471 60.4451C42.1838 63.0855 45.1971 65.259 48.5026 66.9174L45.0184 79.4201C44.8395 80.0349 45.0655 80.6931 45.5739 81.0812C45.8469 81.2949 46.186 81.4023 46.5157 81.4023C46.7981 81.4023 47.0711 81.3279 47.3254 81.181L65.076 70.5683C68.6073 70.4601 72.0821 69.8217 75.4063 68.6662C76.2256 68.3847 76.6588 67.4937 76.3762 66.6773C76.0842 65.8627 75.1991 65.4314 74.3799 65.715C71.2348 66.8082 67.9483 67.3922 64.6053 67.4533C64.3323 67.459 64.0686 67.5353 63.833 67.6756L49.077 76.4926L51.8643 66.4937C52.0715 65.7517 51.7137 64.9681 51.0074 64.65C47.561 63.0877 44.4533 60.9295 41.7602 58.2361C29.4807 45.9566 29.4807 25.9779 41.7602 13.7013C47.7022 7.75173 55.6123 4.47654 64.0215 4.47654C72.4307 4.47654 80.3408 7.75173 86.2922 13.7013C94.8239 22.2301 97.724 34.633 93.8633 46.0678C93.5807 46.8861 94.0235 47.7732 94.8426 48.0482C95.6526 48.324 96.5471 47.8863 96.8201 47.0679C98.8541 41.0449 99.193 34.5752 97.7992 28.3611Z" fill="#0071B6"/>
</svg>
